# xmcd CD database file
#
# Track frame offsets:
#	150
#	14520
#	23655
#	37790
#	51877
#	71095
#	80930
#	97840
#	109732
#	124020
#	135482
#	150922
#
# Disc length: 2148 seconds
#
# Revision: 0
# Processed by: cddbd v1.5.1PL0 Copyright (c) Steve Scherf et al.
# Submitted via: CDex 1.50beta9
#
DISCID=8e08620c
DTITLE=In Cahoots - Celebrating The Magic
DYEAR=1996
DGENRE=Country
TTITLE0=Loving You
TTITLE1=I'm Gonna Wear The Pants
TTITLE2=Bradshaw's Lament
TTITLE3=I'm Gonna Be A Cowboy (Girl)
TTITLE4=Lo Siento Mi Vida
TTITLE5=Trail Of The Lonesome Pine
TTITLE6=Forget Me Not
TTITLE7=Lord Lead Me On
TTITLE8=My Favorite Song
TTITLE9=Another County
TTITLE10=We Believe In Happy Endings
TTITLE11=YooHoo In The Valley
EXTD=YEAR: 1996
EXTT0=
EXTT1=
EXTT2=
EXTT3=
EXTT4=
EXTT5=
EXTT6=
EXTT7=
EXTT8=
EXTT9=
EXTT10=
EXTT11=
PLAYORDER=
